<svg xmlns="http://www.w3.org/2000/svg" version="1.1" xmlns:xlink="http://www.w3.org/1999/xlink" xmlns:svgjs="http://svgjs.com/svgjs" width="1440" height="560" preserveAspectRatio="none" viewBox="0 0 1440 560"><g mask="url(&quot;#SvgjsMask1021&quot;)" fill="none"><rect width="1440" height="560" x="0" y="0" fill="rgba(4, 191, 69, 1)"></rect><path d="M0,631.726C120.603,627.595,254.485,613.663,339.055,527.581C421.016,444.155,386.465,304.819,428.416,195.651C466.696,96.036,566.642,24.044,573.481,-82.454C580.88,-197.664,551.313,-325.802,466.967,-404.629C383.857,-482.3,254.844,-467.505,142.482,-485.249C44.945,-500.652,-51.493,-525.577,-147.292,-501.632C-245.515,-477.081,-323.649,-412.187,-402.733,-348.97C-498.293,-272.582,-622.96,-212.012,-656.711,-94.421C-691.168,25.629,-631.724,151.2,-578.757,264.31C-526.187,376.573,-458.973,484.894,-354.319,551.332C-249.96,617.583,-123.54,635.958,0,631.726" fill="#039937"></path><path d="M1440 1069.857C1565.319 1068.76 1690.667 1179.893 1803.993 1126.384 1916.555 1073.2350000000001 1966.566 933.136 1988.908 810.678 2008.879 701.218 1948.039 598.652 1919.916 490.998 1895.345 396.942 1895.651 293.75 1834.193 218.43 1771.955 142.15300000000002 1677.636 99.67500000000001 1581.899 76.73700000000002 1489.267 54.543000000000006 1396.505 76.98200000000003 1302.286 90.98899999999998 1192.519 107.30700000000002 1074.941 100.87400000000002 984.7370000000001 165.51299999999998 884.407 237.409 808.444 344.981 780.172 465.131 750.709 590.345 774.422 722.565 825.924 840.4390000000001 877.967 959.552 950.121 1087.304 1071.887 1132.795 1190.91 1177.262 1312.9470000000001 1070.97 1440 1069.857" fill="#05e553"></path></g><defs><mask id="SvgjsMask1021"><rect width="1440" height="560" fill="#ffffff"></rect></mask></defs></svg>